<svg xmlns="http://www.w3.org/2000/svg" width="1200" height="630" viewBox="0 0 1200 630">
  <defs>
    <linearGradient id="bg" x1="0%" y1="0%" x2="100%" y2="100%">
      <stop offset="0%" stop-color="#05060B"/>
      <stop offset="60%" stop-color="#0C0F1C"/>
      <stop offset="100%" stop-color="#121226"/>
    </linearGradient>
    <radialGradient id="r1" cx="20%" cy="10%" r="70%">
      <stop offset="0%" stop-color="#40D6FF" stop-opacity=".28"/>
      <stop offset="100%" stop-color="#40D6FF" stop-opacity="0"/>
    </radialGradient>
    <radialGradient id="r2" cx="80%" cy="8%" r="70%">
      <stop offset="0%" stop-color="#FF8C42" stop-opacity=".22"/>
      <stop offset="100%" stop-color="#FF8C42" stop-opacity="0"/>
    </radialGradient>
    <linearGradient id="stroke" x1="0%" x2="100%" y1="0%" y2="0%">
      <stop offset="0%" stop-color="#40D6FF" stop-opacity=".6"/>
      <stop offset="50%" stop-color="#A16BFF" stop-opacity=".25"/>
      <stop offset="100%" stop-color="#FF8C42" stop-opacity=".45"/>
    </linearGradient>
  </defs>
  <rect width="1200" height="630" fill="url(#bg)"/>
  <rect width="1200" height="630" fill="url(#r1)"/>
  <rect width="1200" height="630" fill="url(#r2)"/>
  <g opacity=".08">
    <path d="M0 90H1200M0 180H1200M0 270H1200M0 360H1200M0 450H1200M0 540H1200" stroke="#FFF"/>
    <path d="M120 0V630M240 0V630M360 0V630M480 0V630M600 0V630M720 0V630M840 0V630M960 0V630M1080 0V630" stroke="#FFF"/>
  </g>
  <rect x="74" y="84" width="1052" height="462" rx="30" fill="#0C1020" fill-opacity=".66" stroke="url(#stroke)"/>
  <text x="120" y="208" fill="#40D6FF" font-family="ui-monospace, SFMono-Regular, Menlo, monospace" font-size="26" letter-spacing="3">UAE-BASED AI AUTOMATION &amp; SOFTWARE DELIVERY</text>
  <text x="120" y="312" fill="#F4F6FF" font-family="Arial, sans-serif" font-weight="700" font-size="84">TwoApps</text>
  <text x="120" y="392" fill="#DDE2FF" font-family="Arial, sans-serif" font-size="34">AI Workflows • Internal Tools • White-Label Delivery</text>
  <text x="120" y="470" fill="#9CA3C9" font-family="Arial, sans-serif" font-size="22">UAE / GCC • Middle East • Eastern Europe • South America • Australia • New Zealand</text>
</svg>
