<svg xmlns="http://www.w3.org/2000/svg" viewBox="0 0 640 420" fill="none">
  <defs>
    <linearGradient id="teal" x1="120" x2="520" y1="90" y2="340" gradientUnits="userSpaceOnUse">
      <stop offset="0" stop-color="#00E4D4"/>
      <stop offset="0.55" stop-color="#22EADF"/>
      <stop offset="1" stop-color="#00C9BF"/>
    </linearGradient>
    <filter id="glow" x="-40%" y="-60%" width="180%" height="220%" color-interpolation-filters="sRGB">
      <feGaussianBlur stdDeviation="22" result="blur"/>
      <feColorMatrix
        in="blur"
        type="matrix"
        values="1 0 0 0 0
                0 1 0 0 0.95
                0 0 1 0 0.92
                0 0 0 0.85 0"
        result="tint"
      />
      <feMerge>
        <feMergeNode in="tint"/>
        <feMergeNode in="SourceGraphic"/>
      </feMerge>
    </filter>
  </defs>
  <g filter="url(#glow)">
    <path
      d="M86 134c0-41.97 34.03-76 76-76h149c14.36 0 26 11.64 26 26s-11.64 26-26 26H162c-13.25 0-24 10.75-24 24v136c0 13.25 10.75 24 24 24h149c13.25 0 24-10.75 24-24v-26c0-14.36 11.64-26 26-26s26 11.64 26 26v26c0 41.97-34.03 76-76 76H162c-41.97 0-76-34.03-76-76V134Z"
      fill="url(#teal)"
      fill-opacity="0.15"
      stroke="url(#teal)"
      stroke-width="22"
      stroke-linecap="round"
      stroke-linejoin="round"
    />
    <path
      d="M554 286c0 41.97-34.03 76-76 76H329c-14.36 0-26-11.64-26-26s11.64-26 26-26h149c13.25 0 24-10.75 24-24V150c0-13.25-10.75-24-24-24H329c-13.25 0-24 10.75-24 24v26c0 14.36-11.64 26-26 26s-26-11.64-26-26v-26c0-41.97 34.03-76 76-76h149c41.97 0 76 34.03 76 76v136Z"
      fill="url(#teal)"
      fill-opacity="0.12"
      stroke="url(#teal)"
      stroke-width="22"
      stroke-linecap="round"
      stroke-linejoin="round"
    />
    <path
      d="M338 196v36c0 17.67-14.33 32-32 32"
      stroke="url(#teal)"
      stroke-width="18"
      stroke-linecap="round"
      stroke-linejoin="round"
    />
    <circle cx="106" cy="326" r="10" fill="#8FFFF7" fill-opacity="0.9"/>
    <circle cx="534" cy="94" r="10" fill="#8FFFF7" fill-opacity="0.9"/>
    <circle cx="320" cy="362" r="10" fill="#8FFFF7" fill-opacity="0.9"/>
    <circle cx="320" cy="58" r="10" fill="#8FFFF7" fill-opacity="0.9"/>
  </g>
</svg>
